<svg width="508" height="119" viewBox="0 0 508 119" fill="none" xmlns="http://www.w3.org/2000/svg">
<g clip-path="url(#clip0_8_28)">
<path d="M40 48.5852V69.4972C40 74.2352 43.4339 78.0764 47.6708 78.0764H53.3417V40.006H47.6708C43.4339 40.006 40 43.8461 40 48.5852Z" fill="white"/>
<path d="M55.0417 57.566H68.4995V40.006H55.0417V57.566" fill="white"/>
<path d="M55.0417 85.68H68.4995V60.5169H55.0417V85.68Z" fill="white"/>
<path d="M81.2385 78.1487L89.3703 78.0764L81.2385 65.6264V78.1487Z" fill="white"/>
<path d="M81.2385 40.006V52.456L89.2995 40.006H81.2385Z" fill="white"/>
<path d="M102.323 78.0764V40.006L89.0812 59.0769L102.323 78.0764Z" fill="white"/>
<path d="M125.665 62.4847H131.525V65.054C130.656 65.5764 129.549 65.8404 128.228 65.8404C126.86 65.8404 125.617 65.5764 124.531 65.0549C123.469 64.5477 122.627 63.8273 122.029 62.916C121.43 61.9993 121.138 60.994 121.138 59.8431C121.138 58.9847 121.32 58.1893 121.679 57.4759C122.04 56.7571 122.525 56.1581 123.123 55.6945C123.744 55.2155 124.459 54.8388 125.251 54.5764C126.871 54.0341 128.672 54.0669 130.401 54.5279C131.288 54.7639 132.033 55.0331 132.605 55.3232L133.668 55.8831L135.665 52.1164L134.637 51.5305C132.562 50.3732 130.197 49.7857 127.609 49.7857C126.191 49.7857 124.858 49.9701 123.649 50.3347C122.432 50.7019 121.372 51.2149 120.501 51.8597C119.636 52.5019 118.886 53.2623 118.275 54.1227C117.659 54.9847 117.199 55.9253 116.907 56.9149C116.619 57.8925 116.472 58.9212 116.472 59.9748C116.472 60.9795 116.605 61.9716 116.865 62.9221C117.128 63.8863 117.558 64.8248 118.143 65.7155C118.731 66.6071 119.461 67.394 120.313 68.0549C121.17 68.7196 122.243 69.2555 123.505 69.6529C124.756 70.0436 126.149 70.2431 127.648 70.2431C131.208 70.2431 133.996 69.1685 135.937 67.0497L136.112 66.8587V58.2284H125.665V62.4847Z" fill="white"/>
<path d="M152.646 60.704H149.254L150.954 56.2883L152.646 60.704ZM148.79 49.9311L140.848 69.9784H145.483L147.577 65.08H154.334L156.43 69.9784H161.26L153.332 49.9311H148.79Z" fill="white"/>
<path d="M170.993 49.9311H166.341V69.9784H180.475V65.6035H170.993V49.9311Z" fill="white"/>
<path d="M190.771 49.9311H186.119V69.9784H200.252V65.6035H190.771V49.9311Z" fill="white"/>
<path d="M215.275 60.704H211.881L213.581 56.2883L215.275 60.704ZM211.417 49.9311L203.476 69.9784H208.111L210.204 65.08H216.963L219.057 69.9784H223.888L215.96 49.9311H211.417" fill="white"/>
<path d="M237.173 62.4847H243.032V65.054C242.163 65.5764 241.056 65.8404 239.736 65.8404C238.368 65.8404 237.125 65.5764 236.039 65.0549C234.977 64.5477 234.135 63.8273 233.537 62.916C232.937 61.9993 232.645 60.994 232.645 59.8431C232.645 58.9847 232.828 58.1893 233.187 57.4759C233.548 56.7571 234.033 56.1581 234.632 55.6945C235.252 55.2155 235.968 54.8388 236.759 54.5764C238.38 54.0341 240.18 54.0669 241.908 54.5279C242.796 54.7639 243.541 55.0331 244.113 55.3232L245.176 55.8831L247.173 52.1164L246.144 51.5305C244.069 50.3732 241.705 49.7857 239.117 49.7857C237.699 49.7857 236.365 49.9701 235.157 50.3347C233.94 50.7019 232.88 51.2149 232.009 51.8597C231.144 52.5019 230.395 53.2623 229.783 54.1227C229.167 54.9847 228.708 55.9253 228.415 56.9149C228.127 57.8925 227.98 58.9212 227.98 59.9748C227.98 60.9795 228.112 61.9716 228.372 62.9221C228.636 63.8863 229.065 64.8248 229.651 65.7155C230.239 66.6071 230.969 67.394 231.821 68.0549C232.677 68.7196 233.751 69.2555 235.013 69.6529C236.264 70.0436 237.657 70.2431 239.156 70.2431C242.716 70.2431 245.504 69.1685 247.445 67.0497L247.62 66.8587V58.2284H237.173V62.4847" fill="white"/>
<path d="M268.107 57.4644H259.431V49.9311H254.779V69.9784H259.431V61.8535H268.107V69.9784H272.759V49.9311H268.107V57.4644" fill="white"/>
<path d="M280.707 69.9784H295.171V65.5904H285.372V61.8664H294.447V57.4773H285.372V54.3196H295.171V49.9311H280.707V69.9784Z" fill="white"/>
<path d="M307.115 54.3065H310.123C313.499 54.3065 313.499 55.7259 313.499 56.2607C313.499 56.6155 313.433 56.9169 313.305 57.1617C313.177 57.4065 313.017 57.5983 312.829 57.7284C312.62 57.8759 312.336 57.994 311.985 58.0836C311.596 58.1841 311.212 58.2503 310.843 58.2831C310.455 58.3169 310.008 58.3336 309.504 58.3336H307.115V54.3065ZM315.843 61.106C316.449 60.6617 316.937 60.1477 317.292 59.5773C317.637 59.0227 317.895 58.4368 318.055 57.8368C318.215 57.2451 318.296 56.6139 318.296 55.9576C318.296 55.2024 318.201 54.5071 318.019 53.8899C317.832 53.2685 317.584 52.7379 317.284 52.3117C316.983 51.8888 316.6 51.5123 316.147 51.1972C315.712 50.8945 315.284 50.6607 314.872 50.5024C314.469 50.3472 314.007 50.2221 313.499 50.1321C313.001 50.0436 312.579 49.9883 312.227 49.9649C311.884 49.9425 311.508 49.9311 311.096 49.9311H302.463V69.9784H307.115V62.7216H309.281L314.523 69.9784H320.487L314.591 61.8144C315.051 61.6164 315.469 61.3795 315.843 61.106" fill="white"/>
<path d="M324.189 62.7623H337.928V58.5175H324.189V62.7623" fill="white"/>
<path d="M363.264 49.9311H357.119L349.528 57.5565V49.9311H344.876V69.9784H349.528V61.8727L357.539 69.9784H363.699L353.591 59.5607L363.264 49.9311" fill="white"/>
<path d="M377.772 60.704H374.38L376.08 56.2883L377.772 60.704ZM373.916 49.9311L365.973 69.9784H370.609L372.703 65.08H379.461L381.556 69.9784H386.387L378.459 49.9311H373.916" fill="white"/>
<path d="M391.861 69.9784H396.513V49.9311H391.861V69.9784Z" fill="white"/>
<path d="M418.227 59.6737C417.54 59.2769 416.777 58.9237 415.963 58.6243C415.167 58.3327 414.355 58.0712 413.545 57.844C412.775 57.6295 412.071 57.4107 411.432 57.1904C410.855 56.9915 410.387 56.7519 410.041 56.4759C409.72 56.2207 409.683 56.0045 409.683 55.8655C409.683 55.494 410.015 55.1529 410.668 54.8508C412.363 54.0773 414.909 54.094 417.864 54.9133L418.969 55.2327L420.493 50.9191L419.284 50.5649C417.524 50.0305 415.719 49.7597 413.913 49.7597C411.205 49.7597 408.993 50.3404 407.339 51.4847C405.605 52.6831 404.727 54.206 404.727 56.0107C404.727 56.7415 404.877 57.4201 405.179 58.0269C405.475 58.6259 405.883 59.1331 406.387 59.5357C406.855 59.9065 407.395 60.2431 407.991 60.5341C408.579 60.8212 409.2 61.068 409.843 61.2701C410.465 61.4644 411.087 61.6461 411.711 61.8169C412.316 61.9811 412.895 62.1493 413.444 62.3221C413.965 62.4879 414.435 62.6685 414.839 62.8612C415.181 63.0253 415.453 63.2232 415.645 63.4497C415.799 63.6279 415.868 63.8128 415.868 64.0305C415.868 64.1945 415.868 64.6311 414.983 65.0669C413.435 65.8273 410.815 65.9237 406.74 64.4759L405.584 64.0321L404.021 68.4827L405.112 68.8925C406.215 69.3232 407.277 69.6597 408.271 69.8899C409.283 70.1243 410.427 70.2431 411.676 70.2431C412.921 70.2431 414.071 70.1191 415.091 69.8759C416.121 69.6279 416.989 69.2977 417.673 68.8915C418.36 68.4827 418.948 67.994 419.42 67.4393C419.896 66.8811 420.243 66.2977 420.449 65.7076C420.653 65.1269 420.757 64.5279 420.757 63.9253C420.757 62.9811 420.516 62.1311 420.036 61.3961C419.573 60.6816 418.964 60.1019 418.227 59.6737" fill="white"/>
<path d="M427.639 69.9784H442.103V65.5904H432.304V61.8664H441.379V57.4773H432.304V54.3196H442.103V49.9311H427.639V69.9784Z" fill="white"/>
<path d="M454.047 54.3065H457.055C460.431 54.3065 460.431 55.7259 460.431 56.2607C460.431 56.6155 460.365 56.9169 460.239 57.1617C460.109 57.4065 459.949 57.5983 459.761 57.7284C459.552 57.8759 459.268 57.994 458.917 58.0836C458.528 58.1841 458.144 58.2503 457.775 58.2831C457.387 58.3169 456.94 58.3336 456.436 58.3336H454.047V54.3065ZM461.524 61.8144C461.983 61.6164 462.401 61.3795 462.775 61.106C463.381 60.6617 463.869 60.1477 464.224 59.5773C464.571 59.0227 464.827 58.4368 464.987 57.8368C465.147 57.2451 465.228 56.6139 465.228 55.9576C465.228 55.2024 465.135 54.5071 464.951 53.8899C464.764 53.2685 464.517 52.7379 464.216 52.3117C463.915 51.8888 463.532 51.5123 463.08 51.1972C462.644 50.8945 462.216 50.6607 461.804 50.5024C461.403 50.3472 460.939 50.2221 460.431 50.1321C459.933 50.0436 459.511 49.9883 459.159 49.9649C458.816 49.9425 458.44 49.9311 458.028 49.9311H449.395V69.9784H454.047V62.7216H456.213L461.455 69.9784H467.419L461.524 61.8144" fill="white"/>
</g>
<defs>
<clipPath id="clip0_8_28">
<rect width="427.413" height="45.68" fill="white" transform="translate(40 40)"/>
</clipPath>
</defs>
</svg>
