<svg width="468" height="79" viewBox="0 0 468 79" fill="none" xmlns="http://www.w3.org/2000/svg">
<g clip-path="url(#clip0_8_28)">
<path d="M20 28.5852V49.4972C20 54.2352 23.4339 58.0764 27.6708 58.0764H33.3417V20.006H27.6708C23.4339 20.006 20 23.8461 20 28.5852Z" fill="white"/>
<path d="M35.0417 37.566H48.4995V20.006H35.0417V37.566" fill="white"/>
<path d="M35.0417 65.68H48.4995V40.5169H35.0417V65.68Z" fill="white"/>
<path d="M61.2385 58.1487L69.3703 58.0764L61.2385 45.6264V58.1487Z" fill="white"/>
<path d="M61.2385 20.006V32.456L69.2995 20.006H61.2385Z" fill="white"/>
<path d="M82.3235 58.0764V20.006L69.0812 39.0769L82.3235 58.0764Z" fill="white"/>
<path d="M105.665 42.4847H111.525V45.054C110.656 45.5764 109.549 45.8404 108.228 45.8404C106.86 45.8404 105.617 45.5764 104.531 45.0549C103.469 44.5477 102.627 43.8273 102.029 42.916C101.43 41.9993 101.138 40.994 101.138 39.8431C101.138 38.9847 101.32 38.1893 101.679 37.4759C102.04 36.7571 102.525 36.1581 103.123 35.6945C103.744 35.2155 104.459 34.8388 105.251 34.5764C106.871 34.0341 108.672 34.0669 110.401 34.5279C111.288 34.7639 112.033 35.0331 112.605 35.3232L113.668 35.8831L115.665 32.1164L114.637 31.5305C112.562 30.3732 110.197 29.7857 107.609 29.7857C106.191 29.7857 104.858 29.9701 103.649 30.3347C102.432 30.7019 101.372 31.2149 100.501 31.8597C99.636 32.5019 98.8864 33.2623 98.2745 34.1227C97.6593 34.9847 97.1995 35.9253 96.9073 36.9149C96.6193 37.8925 96.4724 38.9212 96.4724 39.9748C96.4724 40.9795 96.6047 41.9716 96.8645 42.9221C97.1281 43.8863 97.5579 44.8248 98.1427 45.7155C98.7312 46.6071 99.4609 47.394 100.313 48.0549C101.17 48.7196 102.243 49.2555 103.505 49.6529C104.756 50.0436 106.149 50.2431 107.648 50.2431C111.208 50.2431 113.996 49.1685 115.937 47.0497L116.112 46.8587V38.2284H105.665V42.4847Z" fill="white"/>
<path d="M132.646 40.704H129.254L130.954 36.2883L132.646 40.704ZM128.79 29.9311L120.848 49.9784H125.483L127.577 45.08H134.334L136.43 49.9784H141.26L133.332 29.9311H128.79Z" fill="white"/>
<path d="M150.993 29.9311H146.341V49.9784H160.475V45.6035H150.993V29.9311Z" fill="white"/>
<path d="M170.771 29.9311H166.119V49.9784H180.252V45.6035H170.771V29.9311Z" fill="white"/>
<path d="M195.275 40.704H191.881L193.581 36.2883L195.275 40.704ZM191.417 29.9311L183.476 49.9784H188.111L190.204 45.08H196.963L199.057 49.9784H203.888L195.96 29.9311H191.417" fill="white"/>
<path d="M217.173 42.4847H223.032V45.054C222.163 45.5764 221.056 45.8404 219.736 45.8404C218.368 45.8404 217.125 45.5764 216.039 45.0549C214.977 44.5477 214.135 43.8273 213.537 42.916C212.937 41.9993 212.645 40.994 212.645 39.8431C212.645 38.9847 212.828 38.1893 213.187 37.4759C213.548 36.7571 214.033 36.1581 214.632 35.6945C215.252 35.2155 215.968 34.8388 216.759 34.5764C218.38 34.0341 220.18 34.0669 221.908 34.5279C222.796 34.7639 223.541 35.0331 224.113 35.3232L225.176 35.8831L227.173 32.1164L226.144 31.5305C224.069 30.3732 221.705 29.7857 219.117 29.7857C217.699 29.7857 216.365 29.9701 215.157 30.3347C213.94 30.7019 212.88 31.2149 212.009 31.8597C211.144 32.5019 210.395 33.2623 209.783 34.1227C209.167 34.9847 208.708 35.9253 208.415 36.9149C208.127 37.8925 207.98 38.9212 207.98 39.9748C207.98 40.9795 208.112 41.9716 208.372 42.9221C208.636 43.8863 209.065 44.8248 209.651 45.7155C210.239 46.6071 210.969 47.394 211.821 48.0549C212.677 48.7196 213.751 49.2555 215.013 49.6529C216.264 50.0436 217.657 50.2431 219.156 50.2431C222.716 50.2431 225.504 49.1685 227.445 47.0497L227.62 46.8587V38.2284H217.173V42.4847" fill="white"/>
<path d="M248.107 37.4644H239.431V29.9311H234.779V49.9784H239.431V41.8535H248.107V49.9784H252.759V29.9311H248.107V37.4644" fill="white"/>
<path d="M260.707 49.9784H275.171V45.5904H265.372V41.8664H274.447V37.4773H265.372V34.3196H275.171V29.9311H260.707V49.9784Z" fill="white"/>
<path d="M287.115 34.3065H290.123C293.499 34.3065 293.499 35.7259 293.499 36.2607C293.499 36.6155 293.433 36.9169 293.305 37.1617C293.177 37.4065 293.017 37.5983 292.829 37.7284C292.62 37.8759 292.336 37.994 291.985 38.0836C291.596 38.1841 291.212 38.2503 290.843 38.2831C290.455 38.3169 290.008 38.3336 289.504 38.3336H287.115V34.3065ZM295.843 41.106C296.449 40.6617 296.937 40.1477 297.292 39.5773C297.637 39.0227 297.895 38.4368 298.055 37.8368C298.215 37.2451 298.296 36.6139 298.296 35.9576C298.296 35.2024 298.201 34.5071 298.019 33.8899C297.832 33.2685 297.584 32.7379 297.284 32.3117C296.983 31.8888 296.6 31.5123 296.147 31.1972C295.712 30.8945 295.284 30.6607 294.872 30.5024C294.469 30.3472 294.007 30.2221 293.499 30.1321C293.001 30.0436 292.579 29.9883 292.227 29.9649C291.884 29.9425 291.508 29.9311 291.096 29.9311H282.463V49.9784H287.115V42.7216H289.281L294.523 49.9784H300.487L294.591 41.8144C295.051 41.6164 295.469 41.3795 295.843 41.106" fill="white"/>
<path d="M304.189 42.7623H317.928V38.5175H304.189V42.7623" fill="white"/>
<path d="M343.264 29.9311H337.119L329.528 37.5565V29.9311H324.876V49.9784H329.528V41.8727L337.539 49.9784H343.699L333.591 39.5607L343.264 29.9311" fill="white"/>
<path d="M357.772 40.704H354.38L356.08 36.2883L357.772 40.704ZM353.916 29.9311L345.973 49.9784H350.609L352.703 45.08H359.461L361.556 49.9784H366.387L358.459 29.9311H353.916" fill="white"/>
<path d="M371.861 49.9784H376.513V29.9311H371.861V49.9784Z" fill="white"/>
<path d="M398.227 39.6737C397.54 39.2769 396.777 38.9237 395.963 38.6243C395.167 38.3327 394.355 38.0712 393.545 37.844C392.775 37.6295 392.071 37.4107 391.432 37.1904C390.855 36.9915 390.387 36.7519 390.041 36.4759C389.72 36.2207 389.683 36.0045 389.683 35.8655C389.683 35.494 390.015 35.1529 390.668 34.8508C392.363 34.0773 394.909 34.094 397.864 34.9133L398.969 35.2327L400.493 30.9191L399.284 30.5649C397.524 30.0305 395.719 29.7597 393.913 29.7597C391.205 29.7597 388.993 30.3404 387.339 31.4847C385.605 32.6831 384.727 34.206 384.727 36.0107C384.727 36.7415 384.877 37.4201 385.179 38.0269C385.475 38.6259 385.883 39.1331 386.387 39.5357C386.855 39.9065 387.395 40.2431 387.991 40.5341C388.579 40.8212 389.2 41.068 389.843 41.2701C390.465 41.4644 391.087 41.6461 391.711 41.8169C392.316 41.9811 392.895 42.1493 393.444 42.3221C393.965 42.4879 394.435 42.6685 394.839 42.8612C395.181 43.0253 395.453 43.2232 395.645 43.4497C395.799 43.6279 395.868 43.8128 395.868 44.0305C395.868 44.1945 395.868 44.6311 394.983 45.0669C393.435 45.8273 390.815 45.9237 386.74 44.4759L385.584 44.0321L384.021 48.4827L385.112 48.8925C386.215 49.3232 387.277 49.6597 388.271 49.8899C389.283 50.1243 390.427 50.2431 391.676 50.2431C392.921 50.2431 394.071 50.1191 395.091 49.8759C396.121 49.6279 396.989 49.2977 397.673 48.8915C398.36 48.4827 398.948 47.994 399.42 47.4393C399.896 46.8811 400.243 46.2977 400.449 45.7076C400.653 45.1269 400.757 44.5279 400.757 43.9253C400.757 42.9811 400.516 42.1311 400.036 41.3961C399.573 40.6816 398.964 40.1019 398.227 39.6737" fill="white"/>
<path d="M407.639 49.9784H422.103V45.5904H412.304V41.8664H421.379V37.4773H412.304V34.3196H422.103V29.9311H407.639V49.9784Z" fill="white"/>
<path d="M434.047 34.3065H437.055C440.431 34.3065 440.431 35.7259 440.431 36.2607C440.431 36.6155 440.365 36.9169 440.239 37.1617C440.109 37.4065 439.949 37.5983 439.761 37.7284C439.552 37.8759 439.268 37.994 438.917 38.0836C438.528 38.1841 438.144 38.2503 437.775 38.2831C437.387 38.3169 436.94 38.3336 436.436 38.3336H434.047V34.3065ZM441.524 41.8144C441.983 41.6164 442.401 41.3795 442.775 41.106C443.381 40.6617 443.869 40.1477 444.224 39.5773C444.571 39.0227 444.827 38.4368 444.987 37.8368C445.147 37.2451 445.228 36.6139 445.228 35.9576C445.228 35.2024 445.135 34.5071 444.951 33.8899C444.764 33.2685 444.517 32.7379 444.216 32.3117C443.915 31.8888 443.532 31.5123 443.08 31.1972C442.644 30.8945 442.216 30.6607 441.804 30.5024C441.403 30.3472 440.939 30.2221 440.431 30.1321C439.933 30.0436 439.511 29.9883 439.159 29.9649C438.816 29.9425 438.44 29.9311 438.028 29.9311H429.395V49.9784H434.047V42.7216H436.213L441.455 49.9784H447.419L441.524 41.8144" fill="white"/>
</g>
<defs>
<clipPath id="clip0_8_28">
<rect width="427.413" height="45.68" fill="white" transform="translate(20 20)"/>
</clipPath>
</defs>
</svg>
