<?xml version="1.0" encoding="UTF-8" standalone="no"?>
<!-- Created with Inkscape (http://www.inkscape.org/) -->

<svg
   version="1.1"
   id="svg2"
   xml:space="preserve"
   width="427.41333"
   height="45.68"
   viewBox="0 0 427.41333 45.68"
   sodipodi:docname="GallagherKaiser_Logo_Horizontal_REV.eps"
   xmlns:inkscape="http://www.inkscape.org/namespaces/inkscape"
   xmlns:sodipodi="http://sodipodi.sourceforge.net/DTD/sodipodi-0.dtd"
   xmlns="http://www.w3.org/2000/svg"
   xmlns:svg="http://www.w3.org/2000/svg"><defs
     id="defs6" /><sodipodi:namedview
     id="namedview4"
     pagecolor="#ffffff"
     bordercolor="#666666"
     borderopacity="1.0"
     inkscape:pageshadow="2"
     inkscape:pageopacity="0.0"
     inkscape:pagecheckerboard="0" /><g
     id="g8"
     inkscape:groupmode="layer"
     inkscape:label="ink_ext_XXXXXX"
     transform="matrix(1.3333333,0,0,-1.3333333,0,45.68)"><g
       id="g10"
       transform="scale(0.1)"><path
         d="M 0,278.211 V 121.371 C 0,85.8359 25.7539,57.0273 57.5313,57.0273 H 100.063 V 342.555 H 57.5313 C 25.7539,342.555 0,313.754 0,278.211"
         style="fill:#ffffff;fill-opacity:1;fill-rule:nonzero;stroke:none"
         id="path12" /><path
         d="m 112.813,210.855 h 100.933 v 131.7 H 112.813 v -131.7"
         style="fill:#ffffff;fill-opacity:1;fill-rule:nonzero;stroke:none"
         id="path14" /><path
         d="M 112.813,0 H 213.746 V 188.723 H 112.813 V 0"
         style="fill:#ffffff;fill-opacity:1;fill-rule:nonzero;stroke:none"
         id="path16" /><path
         d="m 309.289,56.4844 60.988,0.5429 -60.988,93.3747 z"
         style="fill:#ffffff;fill-opacity:1;fill-rule:nonzero;stroke:none"
         id="path18" /><path
         d="M 309.289,342.555 V 249.18 l 60.457,93.375 z"
         style="fill:#ffffff;fill-opacity:1;fill-rule:nonzero;stroke:none"
         id="path20" /><path
         d="M 467.426,57.0273 V 342.555 L 368.109,199.523 Z"
         style="fill:#ffffff;fill-opacity:1;fill-rule:nonzero;stroke:none"
         id="path22" /><path
         d="m 642.488,173.965 h 43.946 v -19.27 c -6.516,-3.918 -14.817,-5.898 -24.727,-5.898 -10.254,0 -19.578,1.98 -27.723,5.891 -7.964,3.804 -14.281,9.207 -18.765,16.042 -4.496,6.875 -6.684,14.415 -6.684,23.047 0,6.438 1.363,12.403 4.059,17.754 2.703,5.391 6.347,9.883 10.832,13.36 4.652,3.593 10.019,6.418 15.957,8.386 12.148,4.067 25.656,3.821 38.621,0.364 6.656,-1.77 12.246,-3.789 16.535,-5.965 l 7.969,-4.199 14.98,28.25 -7.707,4.394 c -15.566,8.68 -33.301,13.086 -52.711,13.086 -10.64,0 -20.636,-1.383 -29.699,-4.117 -9.133,-2.754 -17.078,-6.602 -23.613,-11.438 -6.488,-4.816 -12.11,-10.519 -16.699,-16.972 -4.614,-6.465 -8.063,-13.52 -10.254,-20.942 -2.16,-7.332 -3.262,-15.047 -3.262,-22.949 0,-7.535 0.992,-14.976 2.941,-22.105 1.977,-7.231 5.2,-14.27 9.586,-20.95 4.414,-6.687 9.887,-12.589 16.278,-17.546 6.425,-4.985 14.476,-9.004 23.941,-11.985 9.379,-2.93 19.832,-4.426 31.074,-4.426 26.696,0 47.606,8.059 62.164,23.95 l 1.313,1.433 v 64.727 h -78.352 v -31.922"
         style="fill:#ffffff;fill-opacity:1;fill-rule:nonzero;stroke:none"
         id="path24" /><path
         d="m 844.848,187.32 h -25.446 l 12.754,33.118 z m -28.922,80.797 -59.563,-150.355 h 34.758 l 15.703,36.738 h 50.684 l 15.715,-36.738 h 36.23 l -59.465,150.355 h -34.062"
         style="fill:#ffffff;fill-opacity:1;fill-rule:nonzero;stroke:none"
         id="path26" /><path
         d="m 982.449,268.117 h -34.89 V 117.762 h 106.001 v 32.812 h -71.111 v 117.543"
         style="fill:#ffffff;fill-opacity:1;fill-rule:nonzero;stroke:none"
         id="path28" /><path
         d="m 1130.78,268.117 h -34.89 V 117.762 h 106 v 32.812 h -71.11 v 117.543"
         style="fill:#ffffff;fill-opacity:1;fill-rule:nonzero;stroke:none"
         id="path30" /><path
         d="m 1314.56,187.32 h -25.45 l 12.75,33.118 z m -28.93,80.797 -59.56,-150.355 h 34.76 l 15.7,36.738 h 50.69 l 15.71,-36.738 h 36.23 l -59.46,150.355 h -34.07"
         style="fill:#ffffff;fill-opacity:1;fill-rule:nonzero;stroke:none"
         id="path32" /><path
         d="m 1478.8,173.965 h 43.94 v -19.27 c -6.52,-3.918 -14.82,-5.898 -24.72,-5.898 -10.26,0 -19.58,1.98 -27.73,5.891 -7.96,3.804 -14.28,9.207 -18.76,16.042 -4.5,6.875 -6.69,14.415 -6.69,23.047 0,6.438 1.37,12.403 4.06,17.754 2.71,5.391 6.35,9.883 10.84,13.36 4.65,3.593 10.02,6.418 15.95,8.386 12.16,4.067 25.66,3.821 38.62,0.364 6.66,-1.77 12.25,-3.789 16.54,-5.965 l 7.97,-4.199 14.98,28.25 -7.72,4.394 c -15.56,8.68 -33.29,13.086 -52.7,13.086 -10.64,0 -20.64,-1.383 -29.7,-4.117 -9.13,-2.754 -17.08,-6.602 -23.61,-11.438 -6.49,-4.816 -12.11,-10.519 -16.7,-16.972 -4.62,-6.465 -8.06,-13.52 -10.26,-20.942 -2.16,-7.332 -3.26,-15.047 -3.26,-22.949 0,-7.535 0.99,-14.976 2.94,-22.105 1.98,-7.231 5.2,-14.27 9.59,-20.95 4.41,-6.687 9.89,-12.589 16.28,-17.546 6.42,-4.985 14.47,-9.004 23.94,-11.985 9.38,-2.93 19.83,-4.426 31.07,-4.426 26.7,0 47.61,8.059 62.17,23.95 l 1.31,1.433 v 64.727 h -78.35 v -31.922"
         style="fill:#ffffff;fill-opacity:1;fill-rule:nonzero;stroke:none"
         id="path34" /><path
         d="m 1710.8,211.617 h -65.07 v 56.5 h -34.89 V 117.762 h 34.89 v 60.937 h 65.07 v -60.937 h 34.89 v 150.355 h -34.89 v -56.5"
         style="fill:#ffffff;fill-opacity:1;fill-rule:nonzero;stroke:none"
         id="path36" /><path
         d="m 1805.3,117.762 h 108.48 v 32.91 h -73.49 v 27.93 h 68.06 v 32.918 h -68.06 v 23.683 h 73.49 v 32.914 H 1805.3 V 117.762"
         style="fill:#ffffff;fill-opacity:1;fill-rule:nonzero;stroke:none"
         id="path38" /><path
         d="m 2003.36,235.301 h 22.56 c 25.32,0 25.32,-10.645 25.32,-14.656 0,-2.661 -0.49,-4.922 -1.45,-6.758 -0.96,-1.836 -2.16,-3.274 -3.57,-4.25 -1.57,-1.106 -3.7,-1.992 -6.33,-2.664 -2.92,-0.754 -5.8,-1.25 -8.57,-1.496 -2.91,-0.254 -6.26,-0.379 -10.04,-0.379 h -17.92 z m 65.46,-50.996 c 4.55,3.332 8.21,7.187 10.87,11.465 2.59,4.16 4.52,8.554 5.72,13.054 1.2,4.438 1.81,9.172 1.81,14.094 0,5.664 -0.71,10.879 -2.08,15.508 -1.4,4.66 -3.26,8.64 -5.51,11.836 -2.26,3.172 -5.13,5.996 -8.53,8.359 -3.26,2.27 -6.47,4.024 -9.56,5.211 -3.02,1.164 -6.49,2.102 -10.3,2.777 -3.73,0.664 -6.9,1.079 -9.54,1.254 -2.57,0.168 -5.39,0.254 -8.48,0.254 h -64.75 V 117.762 h 34.89 v 54.426 h 16.25 l 39.31,-54.426 h 44.73 l -44.22,61.23 c 3.45,1.485 6.59,3.262 9.39,5.313"
         style="fill:#ffffff;fill-opacity:1;fill-rule:nonzero;stroke:none"
         id="path40" /><path
         d="m 2131.42,171.883 h 103.04 v 31.836 h -103.04 v -31.836"
         style="fill:#ffffff;fill-opacity:1;fill-rule:nonzero;stroke:none"
         id="path42" /><path
         d="m 2424.48,268.117 h -46.09 l -56.93,-57.191 v 57.191 h -34.89 V 117.762 h 34.89 v 60.793 l 60.08,-60.793 h 46.2 l -75.81,78.133 72.55,72.222"
         style="fill:#ffffff;fill-opacity:1;fill-rule:nonzero;stroke:none"
         id="path44" /><path
         d="m 2533.29,187.32 h -25.44 l 12.75,33.118 z m -28.92,80.797 -59.57,-150.355 h 34.77 l 15.7,36.738 h 50.69 l 15.71,-36.738 h 36.23 l -59.46,150.355 h -34.07"
         style="fill:#ffffff;fill-opacity:1;fill-rule:nonzero;stroke:none"
         id="path46" /><path
         d="m 2638.96,117.762 h 34.89 v 150.355 h -34.89 V 117.762"
         style="fill:#ffffff;fill-opacity:1;fill-rule:nonzero;stroke:none"
         id="path48" /><path
         d="m 2836.7,195.047 c -5.15,2.976 -10.87,5.625 -16.98,7.871 -5.97,2.187 -12.06,4.148 -18.13,5.852 -5.78,1.609 -11.06,3.25 -15.85,4.902 -4.33,1.492 -7.84,3.289 -10.43,5.359 -2.41,1.914 -2.69,3.535 -2.69,4.578 0,2.786 2.49,5.344 7.39,7.61 12.71,5.801 31.81,5.676 53.97,-0.469 l 8.29,-2.395 11.43,32.352 -9.07,2.656 c -13.2,4.008 -26.74,6.039 -40.28,6.039 -20.31,0 -36.9,-4.355 -49.31,-12.937 -13,-8.988 -19.59,-20.41 -19.59,-33.945 0,-5.481 1.13,-10.571 3.39,-15.122 2.22,-4.492 5.28,-8.296 9.06,-11.316 3.51,-2.781 7.56,-5.305 12.03,-7.488 4.41,-2.153 9.07,-4.004 13.89,-5.52 4.67,-1.457 9.33,-2.82 14.01,-4.101 4.54,-1.231 8.88,-2.493 13,-3.789 3.91,-1.243 7.43,-2.598 10.46,-4.043 2.57,-1.231 4.61,-2.715 6.05,-4.414 1.15,-1.336 1.67,-2.723 1.67,-4.356 0,-1.23 0,-4.504 -6.64,-7.773 -11.61,-5.703 -31.26,-6.426 -61.82,4.433 l -8.67,3.328 -11.72,-33.379 8.18,-3.074 c 8.27,-3.23 16.24,-5.754 23.69,-7.48 7.59,-1.758 16.17,-2.649 25.54,-2.649 9.34,0 17.96,0.93 25.61,2.754 7.73,1.86 14.24,4.336 19.37,7.383 5.15,3.066 9.56,6.731 13.1,10.891 3.57,4.187 6.17,8.562 7.72,12.988 1.53,4.355 2.31,8.848 2.31,13.367 0,7.082 -1.81,13.457 -5.41,18.969 -3.47,5.359 -8.04,9.707 -13.57,12.918"
         style="fill:#ffffff;fill-opacity:1;fill-rule:nonzero;stroke:none"
         id="path50" /><path
         d="m 2907.29,117.762 h 108.48 v 32.91 h -73.49 v 27.93 h 68.06 v 32.918 h -68.06 v 23.683 h 73.49 v 32.914 H 2907.29 V 117.762"
         style="fill:#ffffff;fill-opacity:1;fill-rule:nonzero;stroke:none"
         id="path52" /><path
         d="m 3105.35,235.301 h 22.56 c 25.32,0 25.32,-10.645 25.32,-14.656 0,-2.661 -0.49,-4.922 -1.44,-6.758 -0.97,-1.836 -2.17,-3.274 -3.58,-4.25 -1.57,-1.106 -3.7,-1.992 -6.33,-2.664 -2.92,-0.754 -5.8,-1.25 -8.57,-1.496 -2.91,-0.254 -6.26,-0.379 -10.04,-0.379 h -17.92 z m 56.08,-56.309 c 3.44,1.485 6.58,3.262 9.38,5.313 4.55,3.332 8.21,7.187 10.87,11.465 2.6,4.16 4.52,8.554 5.72,13.054 1.2,4.438 1.81,9.172 1.81,14.094 0,5.664 -0.7,10.879 -2.08,15.508 -1.4,4.66 -3.25,8.64 -5.51,11.836 -2.26,3.172 -5.13,5.996 -8.52,8.359 -3.27,2.27 -6.48,4.024 -9.57,5.211 -3.01,1.164 -6.49,2.102 -10.3,2.777 -3.73,0.664 -6.9,1.079 -9.54,1.254 -2.57,0.168 -5.39,0.254 -8.48,0.254 h -64.75 V 117.762 h 34.89 v 54.426 h 16.25 l 39.31,-54.426 h 44.73 l -44.21,61.23"
         style="fill:#ffffff;fill-opacity:1;fill-rule:nonzero;stroke:none"
         id="path54" /></g></g></svg>
