<?xml version="1.0" encoding="UTF-8" standalone="no"?>
<svg
   xmlns:svg="http://www.w3.org/2000/svg"
   xmlns="http://www.w3.org/2000/svg"
   version="1.1"
   width="597.01886"
   height="288.38953"
   id="svg3547">
  <defs
     id="defs3549" />
  <g
     transform="translate(-51.490585,-388.16742)"
     id="layer1">
    <path
       d="m 426.48889,508.28814 0,-18.84421 c -0.65857,-6.73586 -6.35459,-12.00439 -13.25219,-12.00439 l -18.0239,0 0,42.78367 19.31793,0 c 6.31414,-0.60658 11.33425,-5.62093 11.95816,-11.93507 m 0,49.48485 c -0.65857,-6.73007 -6.33147,-11.98705 -13.21752,-12.00438 l -18.05857,0 0,67.0466 -31.91732,0 0,-160.90952 68.47349,0 c 14.71951,0 26.66035,11.94083 26.66035,26.66613 l 0,30.01095 c 0,10.37529 -5.93287,19.37569 -14.60977,23.7719 8.4516,4.28645 14.29782,12.94024 14.60399,23.00936 l 0,44.1701 0,0.50836 c 0,4.61574 0.0404,7.74104 0.0404,12.77272 l -31.97509,0 0,-55.04222 m -184.99331,29.98207 0,-0.62969 0,-135.21968 31.92886,0 0,122.03682 c 0,7.37131 5.9733,13.32728 13.3273,13.32728 l 4.63306,0 c 7.35398,0 13.32728,-5.95597 13.32728,-13.32728 0,-0.25997 0.0112,-0.49682 0.0289,-0.699 l 0,-121.33782 31.89423,0 0,135.3641 0,0.48527 c 0,14.71951 -11.93505,26.66035 -26.66035,26.66035 l -41.81314,0 c -14.71374,0 -26.66613,-11.94084 -26.66613,-26.66035 M 119.67821,451.908 l 68.50816,0 c 14.33825,0 26.04222,11.34004 26.63147,25.53385 l 0.0289,105.35894 0,3.2986 c -0.0174,14.77729 -11.94662,26.71235 -26.66035,26.71235 l -68.50816,0 0,-160.90374 z M 169.579,587.26056 c 7.14602,0 12.98645,-5.63248 13.31574,-12.69762 l 0,-84.4177 c -0.32929,-7.04781 -6.13506,-12.66872 -13.26952,-12.70339 l -17.95458,0 0,109.81871 17.90836,0 m 135.09202,-164.72343 31.85377,0 0,-29.36971 -31.85377,0 0,29.36971 z m -63.20497,0 31.98087,0 0,-29.36971 -31.98087,0 0,29.36971 z m 306.78814,85.75101 0,-18.84421 c -0.65856,-6.73586 -6.3488,-12.00439 -13.25219,-12.00439 l -18.01235,0 0,42.78367 19.31215,0 c 6.31414,-0.60658 11.32849,-5.62093 11.95238,-11.93507 m 0,49.48486 c -0.65855,-6.73008 -6.32569,-11.98706 -13.21751,-12.00439 l -18.04702,0 0,67.0466 -31.9231,0 0,-160.90952 68.46772,0 c 14.71373,0 26.66035,11.94083 26.66035,26.66613 l 0,0.4737 0,29.53725 c 0,10.37529 -5.93864,19.37569 -14.60398,23.7719 8.44581,4.28645 14.2978,12.94024 14.5982,23.00936 l 0,44.1701 0,0.50837 c 0,4.61573 0.005,8.6769 0.005,12.77271 l -31.94044,0 0,-55.04221 M 56.490585,393.16858 l 158.327255,0 0,29.36971 -126.39838,0 0,219.64894 523.09168,0 0,-219.64894 -248.21566,0 0,-29.36971 280.14454,0 0.0694,278.38837 -587.018745,0 0,-278.38837 z"
       id="path62"
       style="fill:#00488e;fill-opacity:1;fill-rule:nonzero;stroke:none" />
  </g>
</svg>
